<svg xmlns="http://www.w3.org/2000/svg" xmlns:xlink="http://www.w3.org/1999/xlink" width="1173.936" height="663.657" viewBox="0 0 1173.936 663.657">
  <defs>
    <linearGradient id="linear-gradient" x1="0.458" y1="-0.226" x2="0.477" y2="0.724" gradientUnits="objectBoundingBox">
      <stop offset="0" stop-color="#009cdc"/>
      <stop offset="1" stop-color="#0063b0"/>
    </linearGradient>
  </defs>
  <path id="Path_3" data-name="Path 3" d="M446.918,825.707a426.077,426.077,0,0,1-72.191-20.083C264.218,764.055,182.4,681.958,144.35,574.46c-.314-.887-.629-1.792-.942-2.7-54.778,5.59-110.141-8.592-153.43-40.9C-53.254,498.589-83.828,448.8-91.8,397.667l73.648-11.488c5.042,32.31,24.749,64.068,52.721,84.946,25.788,19.251,58.4,28.591,91.53,27.246-12.024-79.373-8.6-181.552,39.3-252.5,32.018-47.427,79.879-73.822,138.409-76.331,40.891-1.754,79.956,13.627,107.164,42.206,25.054,26.322,36.981,61.021,33.594,97.706-5.178,56.013-37.361,111.287-93.072,159.853-37.727,32.881-86.536,62.681-135.845,83.136,31.031,85.023,96.741,150.093,185.33,183.419,97.488,36.66,209.015,28.652,298.378-21.449q8-4.481,15.838-9.322c-55.215-66.855-76.158-170.754-52.07-262.919C684.621,359.9,729.3,309.5,792.324,296.41c71.847-14.923,140.46,25.2,166.883,97.544C978.43,446.6,972.069,510.995,941.747,570.64c-23.7,46.613-57.787,91.065-98.841,129.886q22.241,4.023,47.626-.451c66.874-11.821,107.191-72.763,125.272-108.034l66.327,34c-42.11,82.154-105.546,134.516-178.621,147.434-46.368,8.193-90.239,1.623-128.135-18.575Q756.134,768.012,735.8,779.43C649.1,828.028,545.3,844,446.918,825.707ZM834.493,368.951a69.67,69.67,0,0,0-27.012.437c-33.89,7.039-58.2,37.871-72.252,91.636-18.389,70.349-1.86,151.852,40.182,199.844,42.154-36.408,77.338-79.643,99.9-124.012,20.982-41.275,26.042-84.042,13.886-117.336C878.966,391.523,858.781,373.467,834.493,368.951ZM322.67,245.117a69.506,69.506,0,0,0-15.68-1.108c-34.93,1.5-61.043,15.749-79.826,43.57-31.023,45.953-37.942,122.991-28.958,191.138,72.6-32.925,165.035-99.334,172.127-176.124,1.77-19.15-6.289-32.025-13.357-39.454C348.173,253.89,335.971,247.591,322.67,245.117Z" transform="translate(91.805 -169.406)" fill="url(#linear-gradient)"/>
</svg>
