<svg xmlns="http://www.w3.org/2000/svg" width="267" height="152.434" viewBox="0 0 267 152.434">
  <g id="Group_2" data-name="Group 2" transform="translate(-232.827 -275.77)">
    <text id="eetukudo" transform="translate(232.827 416.204)" fill="#fff" font-size="62" font-family="Nilland-SmallCaps-Bold, Nilland-SmallCaps" font-weight="700"><tspan x="0" y="0">eetukudo</tspan></text>
    <g id="Group_1" data-name="Group 1" transform="translate(282.91 275.77)">
      <path id="Path_1" data-name="Path 1" d="M374.559,362.207A59.167,59.167,0,0,1,364.2,361.3c-16.136-2.869-29.385-12-37.306-25.7-.065-.113-.131-.228-.2-.344a30.508,30.508,0,0,1-21.977-1.689,29.354,29.354,0,0,1-14.541-16.1l9.76-3.436a18.788,18.788,0,0,0,9.35,10.255,19.893,19.893,0,0,0,13.182,1.4c-3.655-10.528-5.78-24.559-1.044-35.457a23.53,23.53,0,0,1,16.952-13.929,19.33,19.33,0,0,1,15.7,3.041,17.1,17.1,0,0,1,7.064,12.481c.715,7.776-2.274,16.136-8.645,24.178a70.957,70.957,0,0,1-16.43,14.793c6.393,10.816,17.012,18.029,29.947,20.329a49.8,49.8,0,0,0,40.177-10.5q.977-.815,1.925-1.674c-9.233-7.723-14.726-21.37-13.778-34.56.847-11.774,5.666-19.786,13.934-23.171,9.426-3.86,19.809-.126,25.251,9.077,3.96,6.7,4.725,15.647,2.1,24.556a67,67,0,0,1-10.193,20.233,18.69,18.69,0,0,0,6.488-1.27c8.826-3.311,12.782-12.651,14.355-17.923l9.915,2.957c-3.663,12.28-10.991,21.036-20.636,24.653a27.209,27.209,0,0,1-17.959.717q-2.292,2.278-4.779,4.352A60.1,60.1,0,0,1,374.559,362.207Zm41.3-72.17a9.671,9.671,0,0,0-3.676.745c-4.446,1.821-6.981,6.645-7.535,14.34-.724,10.067,3.6,20.771,10.555,26.253a58.4,58.4,0,0,0,10.487-19.459c1.816-6.166,1.422-12.131-1.082-16.366C422.505,291.988,419.292,290.036,415.863,290.036Zm-72.993-3.912a9.681,9.681,0,0,0-2.168.246,13.21,13.21,0,0,0-9.789,7.972c-3.068,7.059-2.057,17.748.9,26.82,9.073-6.336,20-17.745,19.021-28.4a6.8,6.8,0,0,0-2.824-5.046A8.8,8.8,0,0,0,342.87,286.124Z" transform="translate(-290.176 -275.77)" fill="#fff"/>
      <text id="TM" transform="translate(189.092 52.047)" fill="#fff" font-size="15" font-family="Aller"><tspan x="-20.13" y="0">TM</tspan></text>
    </g>
  </g>
</svg>
