<svg xmlns="http://www.w3.org/2000/svg" width="48.362" height="51.972" viewBox="0 0 48.362 51.972"><path d="M18.284,42.909C6.653,46.4,6.653,37.093,2,35.93M34.568,49.887v-9a7.84,7.84,0,0,0-2.187-6.072c7.3-.814,14.981-3.582,14.981-16.284a12.654,12.654,0,0,0-3.488-8.722,11.794,11.794,0,0,0-.211-8.772s-2.745-.814-9.1,3.443a31.126,31.126,0,0,0-16.284,0c-6.351-4.257-9.1-3.443-9.1-3.443a11.794,11.794,0,0,0-.209,8.77A12.655,12.655,0,0,0,5.489,18.6c0,12.608,7.677,15.377,14.981,16.284a7.84,7.84,0,0,0-2.187,6v9" transform="translate(-0.5 0.584)" fill="none" stroke="#fff" stroke-linecap="round" stroke-linejoin="round" stroke-width="3"/></svg>