<svg xmlns="http://www.w3.org/2000/svg" width="188.594" height="51.972" viewBox="0 0 188.594 51.972"><g transform="translate(-161.566 -837.198)"><path d="M33.912,2h-7.34A12.233,12.233,0,0,0,14.34,14.233v7.34H7v9.786h7.34V50.932h9.786V31.359h7.34l2.447-9.786H24.126v-7.34a2.447,2.447,0,0,1,2.447-2.447h7.34Z" transform="translate(156.066 836.738)" fill="none" stroke="#fff" stroke-linecap="round" stroke-linejoin="round" stroke-width="3"/><path d="M18.284,42.909C6.653,46.4,6.653,37.093,2,35.93M34.568,49.887v-9a7.84,7.84,0,0,0-2.187-6.072c7.3-.814,14.981-3.582,14.981-16.284a12.654,12.654,0,0,0-3.488-8.722,11.794,11.794,0,0,0-.211-8.772s-2.745-.814-9.1,3.443a31.126,31.126,0,0,0-16.284,0c-6.351-4.257-9.1-3.443-9.1-3.443a11.794,11.794,0,0,0-.209,8.77A12.655,12.655,0,0,0,5.489,18.6c0,12.608,7.677,15.377,14.981,16.284a7.84,7.84,0,0,0-2.187,6v9" transform="translate(217.078 837.782)" fill="none" stroke="#fff" stroke-linecap="round" stroke-linejoin="round" stroke-width="3"/><path d="M54.45,3.015a26.482,26.482,0,0,1-7.629,3.717,10.884,10.884,0,0,0-19.1,7.289v2.43A25.9,25.9,0,0,1,5.859,5.444S-3.859,27.31,18.007,37.028A28.28,28.28,0,0,1,1,41.887c21.866,12.148,48.591,0,48.591-27.94a10.933,10.933,0,0,0-.194-2.017A18.756,18.756,0,0,0,54.45,3.015Z" transform="translate(294.21 838.728)" fill="none" stroke="#fff" stroke-linecap="round" stroke-linejoin="round" stroke-width="3"/></g></svg>